<svg xmlns="http://www.w3.org/2000/svg" xmlns:xlink="http://www.w3.org/1999/xlink" xml:space="preserve" style="shape-rendering:geometricPrecision;text-rendering:geometricPrecision;image-rendering:optimizeQuality;" viewBox="0 0 8.33333 10.416662500000001" x="0px" y="0px" fill-rule="evenodd" clip-rule="evenodd"><defs><style type="text/css">
   
    .fil1 {fill:none}
    .fil0 {fill:black}
   
  </style></defs><g><path class="fil0" d="M5.15481 1.68666l-2.71465 0 0 2.21042c0,0.066252 -0.0537402,0.119992 -0.119992,0.119992 -0.066252,0 -0.119992,-0.0537402 -0.119992,-0.119992l0 -2.33041c0,-0.066252 0.0537402,-0.119992 0.119992,-0.119992l2.91464 0c0.0320866,0 0.0625157,0.0128268 0.0851772,0.0354921l0.77802 0.77802c0.0225512,0.0225472 0.0351496,0.0529488 0.0351496,0.0848386l3.93701e-006 1.55205c0,0.066252 -0.0537402,0.119992 -0.119992,0.119992 -0.066252,0 -0.119992,-0.0537402 -0.119992,-0.119992l0 -1.47206 -0.269189 0c-0.129106,0 -0.246421,-0.0527638 -0.331417,-0.137756 -0.0849921,-0.0849961 -0.137756,-0.202311 -0.137756,-0.331417l0 -0.269189zm-2.71465 4.96002l3.45301 0 0 -0.62522c0,-0.066252 0.0537402,-0.119992 0.119992,-0.119992 0.066252,0 0.119992,0.0537402 0.119992,0.119992l0 0.745213c0,0.066252 -0.0537402,0.119992 -0.119992,0.119992l-3.693 0c-0.066252,0 -0.119992,-0.0537402 -0.119992,-0.119992l0 -0.745213c0,-0.066252 0.0537402,-0.119992 0.119992,-0.119992 0.066252,0 0.119992,0.0537402 0.119992,0.119992l0 0.62522z"/><polygon class="fil0" points="3.0052,2.8249 5.32812,2.8249 5.32812,3.02489 3.0052,3.02489 "/><polygon class="fil0" points="3.0052,3.2995 5.32812,3.2995 5.32812,3.49949 3.0052,3.49949 "/><polygon class="fil0" points="3.0052,2.3503 4.64759,2.3503 4.64759,2.5503 3.0052,2.5503 "/><path class="fil0" d="M2.38195 4.45162l0.696154 0 0 0.171854 -0.490972 0 0 0.240169 0.423839 0 0 0.171854 -0.423839 0 0 0.431406 -0.205181 0 0 -1.01528zm0.683626 1.01528l0.395476 -1.01528 0.216768 0 0.406583 1.01528 -0.22315 0 -0.0886417 -0.230713 -0.405878 0 -0.0836811 0.230713 -0.217476 0zm1.0914 -0.498539c0,-0.16902 0.0437323,-0.300213 0.130957,-0.393823 0.0872283,-0.093374 0.201878,-0.140177 0.344181,-0.140177 0.124102,0 0.225039,0.0366417 0.302575,0.110157 0.0463307,0.0432598 0.0808425,0.105665 0.104008,0.18698l-0.203051 0.0484606c-0.0118228,-0.0527126 -0.036878,-0.0943189 -0.0751732,-0.124811 -0.0380591,-0.0304961 -0.0843898,-0.045626 -0.13876,-0.045626 -0.0751693,0 -0.136394,0.0269488 -0.183201,0.0810827 -0.0468031,0.0538976 -0.0702047,0.141358 -0.0702047,0.26239 0,0.128358 0.0229291,0.219839 0.0692598,0.274209 0.0460984,0.0546063 0.106138,0.0817913 0.17989,0.0817913 0.0546063,0 0.101413,-0.0172559 0.140654,-0.0520079 0.0392402,-0.0345118 0.0673701,-0.0891181 0.084626,-0.163343l0.198559 0.062878c-0.0304921,0.110866 -0.0810787,0.19313 -0.151992,0.247028 -0.0706772,0.0536575 -0.160744,0.0806063 -0.269717,0.0806063 -0.13474,0 -0.245606,-0.0460945 -0.332362,-0.138051 -0.086752,-0.092189 -0.130248,-0.218185 -0.130248,-0.377744zm1.28878 0.498539l0 -0.843429 -0.301157 0 0 -0.171854 0.806791 0 0 0.171854 -0.300449 0 0 0.843429 -0.205185 0zm-3.00559 0.634551l3.45301 0 0.239984 0 0.401661 0c0.0441811,0 0.08,-0.0358189 0.08,-0.08l0 -2.12438c0,-0.0441811 -0.0358189,-0.08 -0.08,-0.08l-0.401661 0 -0.239984 0 -3.45301 0 -0.239984 0 -0.401661 0c-0.0441811,0 -0.08,0.0358189 -0.08,0.08l0 2.12438c0,0.0441811 0.0358189,0.08 0.08,0.08l0.401661 0 0.239984 0z"/><polygon class="fil0" points="3.56695,4.68848 3.42985,5.06528 3.70689,5.06528 "/></g><rect class="fil1" width="8.33333" height="8.33333"/><text x="0" y="23.33333" fill="#000000" font-size="5px" font-weight="bold" font-family="'Helvetica Neue', Helvetica, Arial-Unicode, Arial, Sans-serif">Created by IYIKON</text><text x="0" y="28.33333" fill="#000000" font-size="5px" font-weight="bold" font-family="'Helvetica Neue', Helvetica, Arial-Unicode, Arial, Sans-serif">from the Noun Project</text></svg>